<?xml version="1.0" standalone="no"?>
<!DOCTYPE svg PUBLIC "-//W3C//DTD SVG 20010904//EN"
 "http://www.w3.org/TR/2001/REC-SVG-20010904/DTD/svg10.dtd">
<svg version="1.0" xmlns="http://www.w3.org/2000/svg"
 width="1280.000000pt" height="295.000000pt" viewBox="0 0 1280.000000 295.000000"
 preserveAspectRatio="xMidYMid meet">

<g transform="translate(0.000000,295.000000) scale(0.100000,-0.100000)"
fill="#000000" stroke="none">
<path d="M11546 2588 c-10 -18 -42 -69 -71 -113 -28 -44 -89 -138 -134 -210
-46 -71 -98 -152 -116 -180 -18 -27 -69 -108 -115 -180 -45 -71 -99 -154 -119
-184 -20 -30 -39 -59 -43 -64 -4 -7 -27 5 -60 29 -29 23 -102 77 -163 122 -60
44 -144 105 -185 136 l-75 55 -56 -117 c-32 -64 -89 -187 -129 -272 -133 -285
-221 -474 -260 -555 -21 -44 -71 -150 -110 -235 -40 -85 -89 -191 -110 -235
-65 -134 -120 -257 -120 -266 0 -5 530 -9 1185 -9 1122 0 1185 1 1185 18 0 9
-9 55 -20 102 -21 89 -88 409 -189 895 -33 160 -62 297 -65 305 -4 8 -31 134
-60 280 -30 146 -71 339 -91 430 -19 91 -41 191 -48 223 l-12 59 -19 -34z
m-996 -1193 c12 -13 40 -36 61 -51 l39 -27 0 -175 c0 -202 -5 -199 90 -61 34
50 68 93 76 96 13 5 104 -54 104 -68 0 -4 -15 -27 -33 -51 -80 -107 -107 -150
-100 -161 4 -7 35 -50 68 -97 34 -47 68 -95 74 -107 12 -23 11 -23 -69 -23
l-80 0 -27 43 c-15 23 -45 64 -65 90 l-38 49 0 -91 0 -91 -70 0 -70 0 0 375
c0 206 4 375 8 375 5 0 19 -11 32 -25z m722 -66 c26 -17 48 -33 48 -36 0 -2
-26 -44 -58 -93 l-58 -88 51 -11 c168 -38 221 -245 95 -368 -54 -52 -92 -65
-179 -62 -64 3 -85 9 -119 32 -97 64 -129 181 -79 290 30 66 228 367 241 367
5 0 31 -14 58 -31z"/>
<path d="M11124 956 c-60 -51 -21 -146 58 -146 80 0 117 89 60 143 -36 34 -81
36 -118 3z"/>
<path d="M6426 2198 c5 -7 19 -29 32 -48 13 -19 28 -45 33 -57 5 -13 13 -23
19 -23 5 0 10 -8 10 -19 0 -10 7 -24 15 -31 8 -7 15 -18 15 -24 0 -7 21 -43
46 -81 26 -39 47 -76 47 -82 0 -17 12 -16 31 3 13 12 14 20 5 37 -9 16 -9 22
0 25 14 5 15 68 1 77 -5 3 -10 20 -10 36 0 27 2 29 21 18 40 -21 38 6 -3 35
-23 17 -38 25 -34 18 5 -8 2 -10 -8 -6 -9 3 -14 9 -12 13 5 8 -185 121 -203
121 -7 0 -9 -5 -5 -12z"/>
<path d="M6721 2009 c-31 -25 -23 -33 9 -9 14 10 23 21 20 23 -3 3 -16 -3 -29
-14z"/>
<path d="M5802 1810 c0 -19 2 -27 5 -17 2 9 2 25 0 35 -3 9 -5 1 -5 -18z"/>
<path d="M7030 1767 c-19 -40 -44 -85 -56 -102 -11 -16 -38 -64 -59 -105 -20
-41 -41 -79 -44 -83 -9 -9 -41 2 -41 14 0 5 -13 28 -30 51 -16 22 -30 47 -30
54 0 7 -9 18 -20 24 -20 11 -20 8 -20 -319 0 -254 -3 -330 -12 -333 -8 -3 -4
-9 10 -17 12 -6 22 -16 22 -22 0 -6 -7 -6 -19 1 -29 15 -39 12 -14 -5 19 -14
32 -8 189 83 l169 97 3 368 c1 202 -1 367 -5 367 -5 -1 -24 -33 -43 -73z m32
-599 c2 -21 3 -38 1 -38 -11 0 -22 45 -17 67 8 31 11 26 16 -29z"/>
<path d="M5822 1750 c0 -14 2 -19 5 -12 2 6 2 18 0 25 -3 6 -5 1 -5 -13z"/>
<path d="M5803 1695 c0 -38 2 -53 4 -32 2 20 2 52 0 70 -2 17 -4 1 -4 -38z"/>
<path d="M8447 1553 c-6 -14 -2 -29 18 -66 19 -35 19 -37 1 -50 -13 -10 -16
-20 -12 -35 l7 -22 495 0 494 0 0 90 0 90 -490 0 c-437 0 -490 -2 -490 -16 0
-8 5 -12 10 -9 16 10 12 -5 -7 -23 -16 -16 -16 -16 -10 0 3 10 2 20 -4 23 -5
4 -7 11 -4 16 4 5 4 9 1 9 -3 0 -7 -3 -9 -7z m29 -143 c0 -12 -4 -16 -9 -11
-5 5 -6 14 -3 20 10 15 12 14 12 -9z"/>
<path d="M8446 1465 c4 -8 10 -12 15 -9 11 6 2 24 -11 24 -5 0 -7 -7 -4 -15z"/>
<path d="M6001 1428 c-26 -41 -82 -141 -123 -218 -22 -41 -46 -82 -53 -90 -12
-13 25 -37 273 -181 158 -92 289 -165 291 -163 2 2 -3 12 -11 21 -15 18 -28
47 -27 59 0 4 -3 10 -8 13 -9 5 -103 168 -103 177 0 2 -43 79 -94 171 -52 93
-103 183 -113 201 l-18 32 -14 -22z"/>
<path d="M6692 904 c-14 -16 -5 -18 17 -5 7 5 9 11 5 14 -5 3 -15 -1 -22 -9z"/>
</g>
</svg>
